<?xml version="1.0" encoding="utf-8"?>
<!-- Generator: Adobe Illustrator 26.4.1, SVG Export Plug-In . SVG Version: 6.00 Build 0)  -->
<svg version="1.1" id="Слой_1" xmlns="http://www.w3.org/2000/svg" xmlns:xlink="http://www.w3.org/1999/xlink" x="0px" y="0px"
	 viewBox="0 0 173 32.1" style="enable-background:new 0 0 173 32.1;" xml:space="preserve">
<g id="logo.svg">
	<path id="Vector" d="M94.8,12.8c0,1.6-0.3,3.1-0.8,4.6c-0.6,1.5-1.4,2.8-2.4,4c-0.5,0.5-1.3,0.6-1.8,0.1c-0.5-0.5-0.6-1.3-0.1-1.8
		c0.8-0.9,1.5-2,1.9-3.2c0.4-1.1,0.7-2.3,0.7-3.6c0-2.8-1.1-5.4-2.9-7.2c-1.8-1.8-4.3-3-7.1-3c-2.8,0-5.3,1.1-7.1,3
		c-1.8,1.8-2.9,4.3-3,7.1c0,0,0,0.1,0,0.1c0,2.8,1.1,5.4,2.9,7.2c1.8,1.8,4.3,3,7.1,3c0.9,0,1.8-0.1,2.6-0.3c0.2,0,0.4-0.1,0.5-0.2
		c-0.2-0.2-0.5-0.4-0.7-0.6c-2.3-2.3-3.7-5.5-3.7-9c0-1.6,0.3-3.1,0.8-4.6c0.6-1.5,1.4-2.8,2.4-4c0.5-0.5,1.3-0.6,1.8-0.1
		c0.5,0.5,0.6,1.3,0.1,1.8c-0.8,0.9-1.5,2-1.9,3.2c-0.4,1.1-0.7,2.3-0.7,3.6c0,2.8,1.1,5.4,2.9,7.2c1.8,1.8,4.3,3,7.1,3
		c2.8,0,5.3-1.1,7.1-3c1.8-1.8,3-4.4,3-7.2h0c0-2.8-1.1-5.4-2.9-7.2c-1.8-1.8-4.3-3-7.1-3c-0.9,0-1.8,0.1-2.6,0.3
		c-0.2,0-0.4,0.1-0.5,0.2c0.2,0.2,0.5,0.4,0.7,0.6C93.4,6.1,94.8,9.2,94.8,12.8z M87.8,24.2c-0.8,0.4-1.6,0.7-2.4,0.9
		c-1.1,0.3-2.2,0.4-3.3,0.4c-1.8,0-3.6-0.4-5.2-1.1l-3.6,6.4c-0.4,0.6-1.1,0.8-1.7,0.5c-0.6-0.4-0.8-1.1-0.5-1.8l3.6-6.4
		c-0.5-0.4-1.1-0.8-1.5-1.3c-2.3-2.3-3.7-5.5-3.7-9c0,0,0-0.1,0-0.1c0-3.5,1.4-6.6,3.7-8.9C75.5,1.4,78.7,0,82.1,0
		c2.1,0,4,0.5,5.7,1.4c0.8-0.4,1.6-0.7,2.4-0.9C91.3,0.2,92.4,0,93.6,0c3.5,0,6.6,1.4,8.9,3.7c2.3,2.3,3.7,5.5,3.7,9h0
		c0,3.5-1.4,6.7-3.7,9c-2.3,2.3-5.4,3.7-8.9,3.7C91.5,25.5,89.6,25,87.8,24.2z M133.1,5.2c0.2-0.7,1-1,1.6-0.8s1,1,0.8,1.7
		l-5.2,14.3c-0.2,0.7-1,1-1.6,0.8c-0.4-0.1-0.6-0.4-0.8-0.8l0,0l0,0l-3.9-11l-3.9,11c-0.2,0.7-1,1-1.6,0.8c-0.4-0.1-0.6-0.4-0.8-0.8
		l0,0l0,0l-5.2-14.3c-0.2-0.7,0.1-1.4,0.8-1.7c0.7-0.2,1.4,0.1,1.6,0.8l3.9,11l3.9-11v0l0,0c0.1-0.3,0.4-0.6,0.8-0.8
		c0.7-0.2,1.4,0.1,1.6,0.8l3.9,11L133.1,5.2z M170.3,1.3c0-0.7,0.6-1.3,1.3-1.3c0.7,0,1.3,0.6,1.3,1.3v11.4c0,0,0,0.1,0,0.1
		c0,2.4-1,4.6-2.6,6.2c-1.6,1.6-3.8,2.6-6.2,2.6v0c-2.4,0-4.7-1-6.2-2.6c-1.6-1.6-2.6-3.9-2.6-6.3h0c0-2.5,1-4.7,2.6-6.3
		c1.6-1.6,3.8-2.6,6.2-2.6c2.4,0,4.6,1,6.2,2.6l0,0V1.3z M170.3,12.9c0,0,0-0.1,0-0.1c0-1.7-0.7-3.3-1.8-4.5
		c-1.1-1.1-2.7-1.9-4.4-1.9c-1.7,0-3.3,0.7-4.4,1.9c-1.1,1.1-1.8,2.7-1.8,4.5h0c0,1.7,0.7,3.3,1.8,4.5c1.1,1.1,2.7,1.9,4.4,1.9v0
		c1.7,0,3.3-0.7,4.4-1.9C169.6,16.1,170.3,14.6,170.3,12.9z M149.6,17.3c0.5-0.5,1.3-0.5,1.8,0c0.5,0.5,0.5,1.3,0,1.8
		c-0.8,0.8-1.8,1.5-2.9,1.9l0,0c-1,0.4-2.2,0.7-3.4,0.7v0c-2.4,0-4.7-1-6.2-2.6c-1.6-1.6-2.6-3.9-2.6-6.3c0,0,0-0.1,0-0.1
		c0-2.4,1-4.6,2.6-6.2c1.6-1.6,3.8-2.6,6.2-2.6s4.6,1,6.2,2.6c1.6,1.6,2.6,3.9,2.6,6.3c0,0.7-0.6,1.3-1.3,1.3h-13.7
		c0.3,1.2,0.9,2.3,1.7,3.2c1.1,1.1,2.7,1.9,4.4,1.9v0c0.9,0,1.7-0.2,2.4-0.5l0,0l0,0C148.4,18.3,149,17.9,149.6,17.3z M140.8,8.3
		c-0.8,0.9-1.5,2-1.7,3.2h12.3c-0.3-1.2-0.9-2.3-1.7-3.2c-1.1-1.1-2.7-1.9-4.4-1.9S141.9,7.2,140.8,8.3z M37.3,17.3
		c0.5-0.5,1.3-0.5,1.8,0c0.5,0.5,0.5,1.3,0,1.8c-0.8,0.8-1.8,1.5-2.9,1.9l0,0c-1,0.4-2.2,0.7-3.4,0.7v0c-2.4,0-4.7-1-6.2-2.6
		C25,17.5,24,15.3,24,12.8c0-2.5,1-4.7,2.6-6.3c1.6-1.6,3.8-2.6,6.2-2.6c2.4,0,4.6,1,6.2,2.6c1.6,1.6,2.6,3.9,2.6,6.3
		c0,0.7-0.6,1.3-1.3,1.3H26.7c0.3,1.2,0.9,2.3,1.7,3.2c1.1,1.1,2.7,1.9,4.4,1.9v0c0.9,0,1.7-0.2,2.4-0.5l0,0l0,0
		C36,18.3,36.7,17.9,37.3,17.3z M28.4,8.3c-0.8,0.9-1.4,1.9-1.7,3.2H39c-0.3-1.2-0.9-2.3-1.7-3.2c-1.1-1.1-2.7-1.9-4.4-1.9
		C31.1,6.5,29.6,7.2,28.4,8.3z M51.7,21.7c-2.4,0-4.7-1-6.2-2.6c-1.6-1.6-2.6-3.9-2.6-6.3c0-2.5,1-4.7,2.6-6.3
		c1.6-1.6,3.8-2.6,6.2-2.6c2.4,0,4.6,1,6.2,2.6l0,0V1.3C58,0.6,58.6,0,59.3,0c0.7,0,1.3,0.6,1.3,1.3v11.4c0,0,0,0.1,0,0.1
		c0,2.4-1,4.6-2.6,6.2C56.4,20.7,54.2,21.7,51.7,21.7L51.7,21.7z M47.3,17.3c1.1,1.1,2.7,1.9,4.4,1.9v0c1.7,0,3.3-0.7,4.4-1.9
		c1.1-1.1,1.8-2.7,1.8-4.4c0,0,0-0.1,0-0.1c0-1.7-0.7-3.3-1.8-4.5c-1.1-1.1-2.7-1.9-4.4-1.9s-3.3,0.7-4.4,1.9
		c-1.1,1.1-1.8,2.7-1.8,4.5S46.2,16.1,47.3,17.3z M20.7,5.2c0.2-0.7,1-1,1.6-0.8c0.7,0.2,1,1,0.8,1.7L18,20.4c-0.2,0.7-1,1-1.6,0.8
		c-0.4-0.1-0.6-0.4-0.8-0.8l0,0l0,0l-3.9-11l-3.9,11c-0.2,0.7-1,1-1.6,0.8c-0.4-0.1-0.6-0.4-0.8-0.8l0,0l0,0L0.1,6.1
		c-0.2-0.7,0.1-1.4,0.8-1.7c0.7-0.2,1.4,0.1,1.6,0.8l3.9,11l3.9-11l0,0l0,0c0.1-0.3,0.4-0.6,0.8-0.8c0.7-0.2,1.4,0.1,1.6,0.8l3.9,11
		L20.7,5.2z M77.1,15.7c0.4,0.6,0.1,1.4-0.5,1.8c-0.6,0.4-1.4,0.1-1.7-0.5c-1.2-2-1.4-4.3-0.8-6.4c0.6-2.1,1.9-4,3.9-5.1
		c0.6-0.4,1.4-0.1,1.7,0.5c0.4,0.6,0.1,1.4-0.5,1.8c-1.4,0.8-2.3,2.1-2.7,3.6C76.2,12.7,76.3,14.3,77.1,15.7z"/>
</g>
</svg>
